<svg width="40" height="40" viewBox="0 0 40 40" fill="none" xmlns="http://www.w3.org/2000/svg">
<g clip-path="url(#clip0_7_26)">
<path d="M39.9998 20.1225C39.9998 9.0075 31.0448 -0.00250244 19.9998 -0.00250244C8.94975 -2.44123e-06 -0.00524902 9.0075 -0.00524902 20.125C-0.00524902 30.1675 7.30975 38.4925 16.8698 40.0025V25.94H11.7948V20.125H16.8748V15.6875C16.8748 10.645 19.8623 7.86 24.4298 7.86C26.6198 7.86 28.9072 8.2525 28.9072 8.2525V13.2025H26.3848C23.9023 13.2025 23.1273 14.755 23.1273 16.3475V20.1225H28.6723L27.7873 25.9375H23.1248V40C32.6847 38.49 39.9998 30.165 39.9998 20.1225Z" fill="#1877F2"/>
</g>
<defs>
<clipPath id="clip0_7_26">
<rect width="40" height="40" fill="white"/>
</clipPath>
</defs>
</svg>
